<?xml version="1.0" standalone="no"?>
<!DOCTYPE svg PUBLIC "-//W3C//DTD SVG 20010904//EN"
 "http://www.w3.org/TR/2001/REC-SVG-20010904/DTD/svg10.dtd">
<svg version="1.0" xmlns="http://www.w3.org/2000/svg"
 width="16.000000pt" height="16.000000pt" viewBox="0 0 16.000000 16.000000"
 preserveAspectRatio="xMidYMid meet">
<metadata>
Created by potrace 1.11, written by Peter Selinger 2001-2013
</metadata>
<g transform="translate(0.000000,16.000000) scale(0.005333,-0.005333)"
fill="#000000" stroke="none">
<path d="M0 1500 l0 -1500 1500 0 1500 0 0 1500 0 1500 -1500 0 -1500 0 0
-1500z m1678 994 c256 -53 451 -226 528 -469 120 -379 -101 -774 -492 -876
-62 -16 -123 -22 -281 -26 l-203 -6 0 -313 0 -314 -230 0 -230 0 0 1010 0
1010 415 0 c341 0 430 -3 493 -16z"/>
<path d="M1230 1820 l0 -260 178 0 c165 0 180 2 228 24 207 96 179 424 -41
485 -22 6 -113 11 -202 11 l-163 0 0 -260z"/>
</g>
</svg>
