<svg xmlns="http://www.w3.org/2000/svg" viewBox="0 0 286.56 286.2"><defs><style>.cls-1{fill:#fff;}</style></defs><title>Asset 1</title><g id="Layer_2" data-name="Layer 2"><g id="Layer_1-2" data-name="Layer 1"><path class="cls-1" d="M143.29,286.2C64.29,286.2,0,222,0,143.11S64.29,0,143.29,0,286.56,64.21,286.56,143.11,222.29,286.2,143.29,286.2ZM264.12,162.7c-4.19-1.32-37.88-11.36-76.23-5.22a526.9,526.9,0,0,1,23.78,87.14,122.41,122.41,0,0,0,52.46-81.92Zm-73,93.11A507.54,507.54,0,0,0,165,163.13l-.81.27c-69,24-93.81,71.83-96,76.32a122.35,122.35,0,0,0,122.89,16.09ZM52.36,225c2.77-4.74,36.36-60.28,99.48-80.65q2.39-.77,4.82-1.45c-3.07-6.9-6.37-13.9-9.92-20.73C85.62,140.44,26.29,139.67,21,139.56c0,1.24-.06,2.48-.06,3.73A121.64,121.64,0,0,0,52.36,225ZM23.48,118.27c5.47.07,55.89.29,113.14-14.89A779.82,779.82,0,0,0,91.29,32.69a122.7,122.7,0,0,0-67.77,85.57ZM114.6,24.48A652.28,652.28,0,0,1,160.29,96c43.52-16.29,61.94-41,64.14-44.15a122.37,122.37,0,0,0-109.81-27.4ZM238,66c-2.58,3.49-23.09,29.74-68.34,48.19,2.85,5.82,5.58,11.74,8.12,17.7q1.35,3.17,2.64,6.31c40.72-5.11,81.18,3.08,85.22,3.93A121.54,121.54,0,0,0,238,66Z"/></g></g></svg>