<?xml version="1.0" encoding="UTF-8"?>
<svg width="65px" height="70px" viewBox="0 0 65 70" version="1.1" xmlns="http://www.w3.org/2000/svg" xmlns:xlink="http://www.w3.org/1999/xlink">
    <!-- Generator: Sketch 48.2 (47327) - http://www.bohemiancoding.com/sketch -->
    <title>github</title>
    <desc>Created with Sketch.</desc>
    <defs></defs>
    <g id="Artboard-3" stroke="none" stroke-width="1" fill="none" fill-rule="evenodd" transform="translate(-251.000000, -132.000000)" stroke-linecap="round" stroke-linejoin="round">
        <g id="github" transform="translate(254.000000, 135.000000)" stroke="#FFFFFF" stroke-width="6">
            <path d="M21,55 C6,59.5 6,47.5 0,46 M42,64 L42,52.39 C42.2276494,49.4961919 41.2004734,46.6441394 39.18,44.56 C48.6,43.51 58.5,39.94 58.5,23.56 C58.4992301,19.371481 56.8880762,15.3435964 54,12.31 C55.3675676,8.64551964 55.270872,4.59504812 53.73,1 C53.73,1 50.19,-0.05 42,5.44 C35.1240272,3.57646523 27.8759728,3.57646523 21,5.44 C12.81,-0.05 9.27,1 9.27,1 C7.72912799,4.59504812 7.63243239,8.64551964 9,12.31 C6.09038134,15.366099 4.47756796,19.4303888 4.5,23.65 C4.5,39.91 14.4,43.48 23.82,44.65 C21.8238587,46.7126907 20.7986141,49.5266599 21,52.39 L21,64" id="Shape"></path>
        </g>
    </g>
</svg>