<?xml version="1.0" encoding="UTF-8"?>
<svg width="73px" height="71px" viewBox="0 0 73 71" version="1.1" xmlns="http://www.w3.org/2000/svg" xmlns:xlink="http://www.w3.org/1999/xlink">
    <!-- Generator: Sketch 48.2 (47327) - http://www.bohemiancoding.com/sketch -->
    <title>linkedin</title>
    <desc>Created with Sketch.</desc>
    <defs></defs>
    <g id="Artboard-3" stroke="none" stroke-width="1" fill="none" fill-rule="evenodd" transform="translate(-349.000000, -130.000000)">
        <g id="linkedin" transform="translate(352.000000, 133.000000)" stroke="#FFFFFF" stroke-width="4.75">
            <path d="M13.247015,62.9954497 C13.247015,64.2524038 12.3519464,65.1502282 11.0988504,65.1502282 L2.1481646,65.1502282 C0.895068583,65.1502282 0,64.2524038 0,62.9954497 L0,24.9276964 C0,23.6707423 0.895068583,22.7729179 2.1481646,22.7729179 L11.0988504,22.7729179 C12.3519464,22.7729179 13.247015,23.6707423 13.247015,24.9276964 L13.247015,62.9954497 Z" id="Shape" stroke-linecap="round" stroke-linejoin="round"></path>
            <path d="M66.8360695,63.1750146 C66.8360695,64.2524038 65.9410009,65.1502282 64.8669186,65.1502282 L55.2001779,65.1502282 C54.1260956,65.1502282 53.2310271,64.2524038 53.2310271,63.1750146 L53.2310271,45.2185272 C53.2310271,42.525054 53.9470819,33.5468103 46.2494921,33.5468103 C40.3420395,33.5468103 39.0889435,39.6520161 38.9099297,42.525054 L38.9099297,63.1750146 C38.9099297,64.2524038 38.0148612,65.1502282 36.9407789,65.1502282 L27.6320656,65.1502282 C26.5579833,65.1502282 25.6629147,64.2524038 25.6629147,63.1750146 L25.6629147,24.7481315 C25.6629147,23.6707423 26.5579833,22.7729179 27.6320656,22.7729179 L36.9407789,22.7729179 C38.0148612,22.7729179 38.9099297,23.6707423 38.9099297,24.7481315 L38.9099297,27.9802992 C41.0580943,24.5685666 44.4593549,22.0546584 51.4408899,22.0546584 C67.0150832,22.0546584 66.8360695,36.5994132 66.8360695,44.5002677 L66.8360695,63.1750146 Z" id="Path" stroke-linecap="round" stroke-linejoin="round"></path>
            <ellipse id="Oval-5" cx="6.60606257" cy="6.70043489" rx="6.60606257" ry="6.70043489"></ellipse>
        </g>
    </g>
</svg>