<?xml version="1.0" encoding="UTF-8"?>
<svg width="72px" height="60px" viewBox="0 0 72 60" version="1.1" xmlns="http://www.w3.org/2000/svg" xmlns:xlink="http://www.w3.org/1999/xlink">
    <!-- Generator: Sketch 48.2 (47327) - http://www.bohemiancoding.com/sketch -->
    <title>twitter</title>
    <desc>Created with Sketch.</desc>
    <defs></defs>
    <g id="Artboard-3" stroke="none" stroke-width="1" fill="none" fill-rule="evenodd" transform="translate(-158.000000, -137.000000)" stroke-linecap="round" stroke-linejoin="round">
        <g id="twitter" transform="translate(161.000000, 139.000000)" stroke="#FFFFFF" stroke-width="6">
            <path d="M66,1 C63.1271549,3.02643222 59.9463236,4.57632774 56.58,5.59 C52.8790786,1.33461338 46.9151099,-0.157657066 41.6462444,1.8533603 C36.3773789,3.86437767 32.9244008,8.95090262 33,14.59 L33,17.59 C22.2919945,17.8676572 12.1560759,12.7659115 6,4 C6,4 -6,31 21,43 C14.8215827,47.1938989 7.46147073,49.2967881 1.11022302e-15,49 C27,64 60,49 60,14.5 C59.9972373,13.6643609 59.9168925,12.8307832 59.76,12.01 C62.8218094,8.99047924 64.9824822,5.17813836 66,1 Z" id="Shape"></path>
        </g>
    </g>
</svg>